#!OML:ASF Y:\EmotionMaleHayes\Project 1\Capture day 1\Session 1\Male1.ASF
:FULLY-SPECIFIED
:DEGREES
2624
root -28.7647 17.1358 0.903634 35.3448 82.6429 36.2002
lowerback 6.67075 2.28765 -5.21728
upperback 1.86746 2.73535 0.142887
thorax -2.05445 1.39612 2.84012
lowerneck -24.1098 3.31431 4.49371
upperneck 14.0617 4.02066 -5.09937
head 8.50232 1.59171 -1.89871
rclavicle 1.635e-014 -4.77083e-015
rhumerus -22.5153 14.2798 -90.4439
rradius 44.1892
rwrist -0.987366
rhand -10.3055 -29.8693
rfingers 7.12502
rthumb 15.6894 -59.2532
lclavicle 1.635e-014 -4.77083e-015
lhumerus -31.0193 -5.0043 83.289
lradius 22.5615
lwrist -17.4401
lhand -11.1352 -25.7868
lfingers 7.12502
lthumb 14.8902 3.65804
rfemur 8.66133 -6.18323 6.61717
rtibia 2.93015
rfoot -13.698 -6.6784
rtoes 23.2541
lfemur 6.00759 4.29484 -18.105
ltibia 9.22395
lfoot -15.5405 15.8142
ltoes -7.62385
2625
root -28.764 17.1399 0.89767 36.4463 82.5894 37.3339
lowerback 6.54256 2.29101 -5.43762
upperback 1.89803 2.73227 -0.0148015
thorax -1.95315 1.39276 2.80617
lowerneck -24.0164 3.32805 4.63663
upperneck 14.1208 3.98921 -5.06238
head 8.50731 1.58954 -1.91439
rclavicle 1.64991e-014 -8.34896e-015
rhumerus -22.8003 14.3237 -90.7366
rradius 44.0868
rwrist -0.521038
rhand -10.2632 -29.2436
rfingers 7.12502
rthumb 15.7302 -58.6243
lclavicle 1.64991e-014 -8.34896e-015
lhumerus -30.6799 -5.39962 83.6544
lradius 22.9999
lwrist -16.6854
lhand -12.1759 -26.0377
lfingers 7.12502
lthumb 13.8875 3.47861
rfemur 8.72979 -6.14176 6.44114
rtibia 2.85876
rfoot -13.643 -6.75095
rtoes 22.9998
lfemur 6.01855 4.66176 -18.2008
ltibia 9.26081
lfoot -15.544 15.4312
ltoes -8.11176
2626
root -28.7682 17.1408 0.894067 36.9852 82.6228 37.8457
lowerback 6.46407 2.30503 -5.57649
upperback 1.86599 2.74391 -0.118511
thorax -1.94477 1.39933 2.77774
lowerneck -23.9778 3.29193 4.58196
upperneck 14.3084 3.92337 -4.85236
head 8.55541 1.57731 -1.84391
rclavicle 3.77691e-015 5.56597e-015
rhumerus -23.1189 14.2384 -90.9609
rradius 43.9135
rwrist 0.0046074
rhand -10.2571 -28.6
rfingers 7.12502
rthumb 15.7361 -57.9803
lclavicle 3.77691e-015 5.56597e-015
lhumerus -30.4184 -5.72197 83.9992
lradius 23.4916
lwrist -15.9968
lhand -12.8176 -26.1104
lfingers 7.12502
lthumb 13.269 3.44723
rfemur 8.69217 -6.12601 6.41416
rtibia 2.86372
rfoot -13.6444 -6.8698
rtoes 22.8736
lfemur 6.46839 4.03695 -18.4374
ltibia 8.23303
lfoot -15.3087 15.9368
ltoes -7.94476
2627
root -28.7697 17.1389 0.889825 38.0908 82.6893 38.9052
lowerback 6.35457 2.29902 -5.75589
upperback 1.81395 2.72827 -0.173569
thorax -1.94155 1.39267 2.82541
lowerneck -24.0075 3.21984 4.3704
upperneck 14.6044 3.85269 -4.59547
head 8.64808 1.55769 -1.73251
rclavicle -1.60767e-014 2.66371e-014
rhumerus -23.5551 14.3133 -91.0613
rradius 43.889
rwrist 0.246909
rhand -10.3387 -28.3869
rfingers 7.12502
rthumb 15.6575 -57.7733
lclavicle -1.60767e-014 2.66371e-014
lhumerus -30.233 -6.18121 84.503
lradius 24.0893
lwrist -14.7491
lhand -12.4719 -25.9922
lfingers 7.12502
lthumb 13.6022 3.54344
rfemur 8.6827 -5.99734 6.37297
rtibia 2.81032
rfoot -13.7168 -7.21374
rtoes 22.6462
lfemur 6.38733 4.1334 -18.4701
ltibia 8.19379
lfoot -15.1034 15.7716
ltoes -8.4798
2628
root -28.7694 17.1394 0.885354 38.663 82.828 39.4544
lowerback 6.27168 2.26579 -5.86602
upperback 1.77537 2.68093 -0.154372
thorax -1.93667 1.36967 2.91325
lowerneck -24.0957 3.21005 4.24681
upperneck 14.8975 3.87465 -4.52806
head 8.76078 1.56526 -1.6864
rclavicle -2.93207e-015 -1.98785e-015
rhumerus -24.0666 14.6013 -91.0989
rradius 44.0037
rwrist 0.235875
rhand -10.2532 -28.2418
rfingers 7.12502
rthumb 15.7398 -57.6217
lclavicle -2.93207e-015 -1.98785e-015
lhumerus -30.0989 -6.45623 85.0105
lradius 24.5216
lwrist -14.0746
lhand -13.1621 -26.328
lfingers 7.12502
lthumb 12.9369 3.25099
rfemur 8.73578 -5.62981 6.53454
rtibia 2.67523
rfoot -13.8561 -7.72757
rtoes 22.8761
lfemur 6.36107 4.30065 -18.3675
ltibia 8.12496
lfoot -14.8144 15.5833
ltoes -9.51079
2629
root -28.7693 17.1394 0.88154 39.1385 82.9857 39.9231
lowerback 6.22864 2.2213 -5.93123
upperback 1.72405 2.61796 -0.15365
thorax -1.96273 1.33983 2.95642
lowerneck -24.112 3.22707 4.16669
upperneck 15.1 3.92397 -4.48838
head 8.83325 1.58661 -1.65295
rclavicle 1.18028e-014 2.127e-014
rhumerus -24.4936 14.65 -91.2243
rradius 43.9275
rwrist 0.361688
rhand -10.248 -28.1149
rfingers 7.12502
rthumb 15.7448 -57.4945
lclavicle 1.18028e-014 2.127e-014
lhumerus -30.0952 -6.95419 85.588
lradius 25.3236
lwrist -12.9882
lhand -13.9793 -25.9867
lfingers 7.12502
lthumb 12.1491 3.64051
rfemur 8.80902 -5.55412 6.64217
rtibia 2.60239
rfoot -13.9313 -7.9138
rtoes 22.991
lfemur 6.66166 4.07943 -18.3665
ltibia 7.46056
lfoot -14.368 15.715
ltoes -10.2543
2630
root -28.7684 17.1373 0.877032 41.4257 82.8954 42.2444
lowerback 6.17544 2.22069 -6.26095
upperback 1.68806 2.59721 -0.305848
thorax -1.97509 1.33206 2.98606
lowerneck -24.0043 3.20709 4.07585
upperneck 15.2274 3.89794 -4.30877
head 8.85185 1.58966 -1.58115
rclavicle 3.14328e-014 -1.82882e-014
rhumerus -24.8497 14.4698 -91.4372
rradius 43.7444
rwrist 0.353411
rhand -10.4307 -28.2114
rfingers 7.12502
rthumb 15.5688 -57.6048
lclavicle 3.14328e-014 -1.82882e-014
lhumerus -30.0247 -7.48861 86.0387
lradius 25.8849
lwrist -12.3263
lhand -14.7792 -26.1923
lfingers 7.12502
lthumb 11.3777 3.47906
rfemur 8.90144 -5.76557 6.22028
rtibia 2.59603
rfoot -13.9049 -7.74572
rtoes 22.7558
lfemur 7.16033 3.57393 -18.8797
ltibia 6.47141
lfoot -14.017 16.113
ltoes -10.2864
2631
root -28.7702 17.1375 0.873783 42.5798 82.7987 43.4371
lowerback 6.12181 2.24901 -6.47291
upperback 1.69342 2.625 -0.46198
thorax -1.94393 1.34636 2.94242
lowerneck -23.908 3.1982 4.11856
upperneck 15.2936 3.85766 -4.21751
head 8.85534 1.58438 -1.56327
rclavicle -3.49116e-014 2.48481e-014
rhumerus -25.1998 14.328 -91.6481
rradius 43.646
rwrist 0.168815
rhand -10.5414 -28.1913
rfingers 7.12502
rthumb 15.4623 -57.5929
lclavicle -3.49116e-014 2.48481e-014
lhumerus -29.7441 -8.346 86.5618
lradius 26.613
lwrist -10.7463
lhand -14.602 -25.493
lfingers 7.12502
lthumb 11.5486 4.16883
rfemur 8.93458 -5.80884 5.96508
rtibia 2.60831
rfoot -13.8698 -7.64241
rtoes 22.9868
lfemur 7.55021 3.28854 -19.1998
ltibia 5.74923
lfoot -13.8167 16.3889
ltoes -10.2786
2632
root -28.7733 17.139 0.871601 42.473 82.8245 43.3628
lowerback 6.06392 2.26087 -6.46392
upperback 1.72168 2.64652 -0.577187
thorax -1.87859 1.35525 2.81917
lowerneck -23.8487 3.19029 4.25197
upperneck 15.3152 3.80927 -4.23879
head 8.85377 1.56796 -1.59969
rclavicle 9.31803e-016 -7.15625e-015
rhumerus -25.5084 14.2163 -91.858
rradius 43.4875
rwrist 0.100202
rhand -10.464 -27.9485
rfingers 7.12502
rthumb 15.5368 -57.3443
lclavicle 9.31803e-016 -7.15625e-015
lhumerus -29.4369 -8.98467 86.8984
lradius 27.0379
lwrist -9.9685
lhand -15.3117 -25.8548
lfingers 7.12502
lthumb 10.8641 3.84421
rfemur 8.94948 -5.75904 6.00418
rtibia 2.61206
rfoot -13.8359 -7.73095
rtoes 22.9199
lfemur 7.76911 3.26066 -19.1764
ltibia 5.45019
lfoot -13.8221 16.3298
ltoes -9.93911
2633
root -28.7766 17.139 0.87031 43.7402 82.794 44.7014
lowerback 6.22961 2.26619 -6.59347
upperback 1.61869 2.62571 -0.738375
thorax -2.07375 1.35336 2.71764
lowerneck -23.7144 3.1358 4.31124
upperneck 15.4532 3.71919 -4.20871
head 8.87521 1.53388 -1.61327
rclavicle -9.405e-015 -1.43125e-014
rhumerus -25.9786 14.1469 -92.1159
rradius 43.2382
rwrist -0.0324509
rhand -10.1841 -27.8617
rfingers 7.12502
rthumb 15.8063 -57.2364
lclavicle -9.405e-015 -1.43125e-014
lhumerus -29.5273 -9.67368 87.2918
lradius 27.7302
lwrist -9.23845
lhand -15.1162 -25.9602
lfingers 7.12502
lthumb 11.0527 3.7288
rfemur 9.0491 -5.71656 5.83513
rtibia 2.58069
rfoot -13.8145 -7.92087
rtoes 22.2507
lfemur 8.08722 3.17092 -19.3386
ltibia 5.01974
lfoot -13.8748 16.2086
ltoes -9.20221
2634
root -28.7785 17.139 0.869451 44.842 82.8095 45.8463
lowerback 6.12966 2.21806 -6.80592
upperback 1.65883 2.55937 -0.759934
thorax -1.97755 1.31802 2.8243
lowerneck -23.7299 3.12108 4.21213
upperneck 15.5883 3.73665 -4.20566
head 8.92348 1.53569 -1.59386
rclavicle 1.7667e-014 -3.10104e-014
rhumerus -26.3062 14.3485 -92.217
rradius 43.1683
rwrist -0.363891
rhand -9.91075 -27.9993
rfingers 7.12502
rthumb 16.0696 -57.353
lclavicle 1.7667e-014 -3.10104e-014
lhumerus -29.4222 -10.0324 87.7532
lradius 28.5288
lwrist -8.45433
lhand -14.2288 -25.8766
lfingers 7.12502
lthumb 11.9085 3.76469
rfemur 9.13287 -5.63894 5.74905
rtibia 2.55106
rfoot -13.8387 -8.12548
rtoes 21.8461
lfemur 8.41831 3.0174 -19.448
ltibia 4.42608
lfoot -13.7254 16.1705
ltoes -8.64502
2635
root -28.7778 17.139 0.86693 45.191 82.9132 46.1704
lowerback 6.02085 2.13911 -6.87316
upperback 1.6211 2.45695 -0.74675
thorax -1.94903 1.26684 2.88744
lowerneck -23.617 3.16975 4.09271
upperneck 15.7123 3.83663 -4.12964
head 8.94775 1.58476 -1.53465
rclavicle -2.51711e-014 2.38542e-014
rhumerus -26.8555 14.5654 -92.4111
rradius 43.1817
rwrist -0.37516
rhand -10.0113 -28.0499
rfingers 7.12502
rthumb 15.9728 -57.4113
lclavicle -2.51711e-014 2.38542e-014
lhumerus -29.4854 -10.5742 88.3137
lradius 29.1871
lwrist -8.16009
lhand -14.9274 -25.6401
lfingers 7.12502
lthumb 11.2348 4.03905
rfemur 9.15577 -5.45215 5.88221
rtibia 2.49751
rfoot -13.9174 -8.49562
rtoes 21.763
lfemur 8.61981 2.83312 -19.4217
ltibia 3.93619
lfoot -13.6121 16.1314
ltoes -7.58725
2636
root -28.7794 17.1388 0.86435 45.3688 82.9978 46.3107
lowerback 5.85152 2.0958 -6.97924
upperback 1.63833 2.40848 -0.703796
thorax -1.83763 1.23909 3.00152
lowerneck -23.5067 3.23063 3.97629
upperneck 15.6893 3.95148 -4.07782
head 8.92255 1.63882 -1.4819
rclavicle 1.67725e-015 7.95139e-016
rhumerus -27.1499 14.7894 -92.5228
rradius 42.8078
rwrist -0.155066
rhand -10.3165 -27.9355
rfingers 7.12502
rthumb 15.6788 -57.3202
lclavicle 1.67725e-015 7.95139e-016
lhumerus -29.4267 -11.2949 88.9204
lradius 29.7993
lwrist -7.36872
lhand -15.5942 -25.7501
lfingers 7.12502
lthumb 10.5916 3.96299
rfemur 9.15904 -5.10712 6.07352
rtibia 2.39431
rfoot -14.0054 -8.98515
rtoes 21.6844
lfemur 8.80169 2.72479 -19.3761
ltibia 3.4563
lfoot -13.5172 16.134
ltoes -7.19571
2637
root -28.782 17.1397 0.863059 44.9398 83.101 45.8476
lowerback 5.79624 2.10187 -6.9471
upperback 1.60004 2.42045 -0.69909
thorax -1.84681 1.2457 2.98855
lowerneck -23.5182 3.19986 3.89214
upperneck 15.7847 3.9331 -4.04067
head 8.9542 1.62863 -1.4582
rclavicle -1.48405e-014 2.92213e-014
rhumerus -27.433 14.799 -92.6629
rradius 42.3504
rwrist -0.17312
rhand -10.4292 -28.103
rfingers 7.12502
rthumb 15.5703 -57.4963
lclavicle -1.48405e-014 2.92213e-014
lhumerus -29.3489 -11.5676 89.3201
lradius 30.3824
lwrist -6.83462
lhand -15.5555 -26.0383
lfingers 7.12502
lthumb 10.6289 3.67292
rfemur 9.13554 -4.83196 6.32103
rtibia 2.33297
rfoot -14.0838 -9.22575
rtoes 21.4072
lfemur 9.01457 2.67983 -19.2294
ltibia 2.96805
lfoot -13.3201 16.1535
ltoes -7.83474
2638
root -28.7823 17.1418 0.861204 44.5352 83.3003 45.3815
lowerback 5.73583 2.09065 -6.76457
upperback 1.5309 2.4161 -0.724121
thorax -1.87638 1.24475 2.86181
lowerneck -23.5162 3.13632 3.88664
upperneck 15.9435 3.85663 -4.04964
head 9.00579 1.59084 -1.47185
rclavicle -3.0793e-014 2.62396e-014
rhumerus -27.8426 14.6168 -92.8232
rradius 42.1247
rwrist -0.271512
rhand -10.3462 -28.541
rfingers 7.12502
rthumb 15.6502 -57.928
lclavicle -3.0793e-014 2.62396e-014
lhumerus -29.0961 -10.872 89.4345
lradius 30.7403
lwrist -7.66582
lhand -15.3465 -26.4865
lfingers 7.12502
lthumb 10.8306 3.2142
rfemur 9.09594 -4.83818 6.56327
rtibia 2.33151
rfoot -14.1545 -9.24428
rtoes 21.5611
lfemur 9.16183 2.84437 -18.9222
ltibia 2.56453
lfoot -12.9264 15.8852
ltoes -8.94836
